<svg width="264" height="264" viewBox="0 0 264 264" xmlns="http://www.w3.org/2000/svg"><title>2011</title><defs><filter x="-50%" y="-50%" width="200%" height="200%" filterUnits="objectBoundingBox" id="a"><feOffset in="SourceAlpha" result="shadowOffsetOuter1"/><feGaussianBlur stdDeviation="2" in="shadowOffsetOuter1" result="shadowBlurOuter1"/><feColorMatrix values="0 0 0 0 0 0 0 0 0 0 0 0 0 0 0 0 0 0 0.105 0" in="shadowBlurOuter1" result="shadowMatrixOuter1"/><feMerge><feMergeNode in="shadowMatrixOuter1"/><feMergeNode in="SourceGraphic"/></feMerge></filter></defs><g transform="translate(-7 -7)" fill="none" fill-rule="evenodd"><circle fill="#FFF" filter="url(#a)" cx="139" cy="139" r="128"/><circle stroke="#F47503" stroke-width="2" cx="139" cy="139" r="113"/><path d="M83.08 56.096C37.295 86.98 25.214 149.133 56.097 194.92c15.442 22.893 38.7 37.36 63.823 42.243 25.12 4.883 52.106.182 75-15.26 45.786-30.883 57.867-93.036 26.984-138.822C191.02 37.295 128.867 25.214 83.08 56.097z" fill="#FFF"/><path d="M94.54 218.62a2.525 2.525 0 0 0-.34-1.137 2.794 2.794 0 0 0-.916-.963 3.017 3.017 0 0 0-.704-.343 2.134 2.134 0 0 0-.78-.114c-.262.01-.513.075-.75.193-.24.117-.446.31-.623.576-.17.258-.263.507-.276.748-.012.24.03.48.122.714.094.235.23.473.41.714.18.24.373.494.58.76.256.31.507.636.753.98.246.34.435.703.566 1.085.132.38.18.78.145 1.2-.034.42-.208.863-.52 1.335-.325.488-.698.852-1.12 1.09-.42.24-.86.377-1.318.412a3.714 3.714 0 0 1-1.396-.168 5.344 5.344 0 0 1-2.83-2.13 4.113 4.113 0 0 1-.7-1.94l1.603-.186c.004.477.125.94.362 1.393.238.45.574.822 1.01 1.11.222.148.465.265.728.35.264.085.53.12.802.11.27-.013.53-.08.778-.204.248-.124.467-.328.655-.612.19-.284.287-.562.294-.833.007-.27-.048-.54-.164-.808a3.863 3.863 0 0 0-.488-.814 58.44 58.44 0 0 0-.67-.857 8.918 8.918 0 0 1-.676-.918 3.717 3.717 0 0 1-.46-1.015 2.736 2.736 0 0 1-.068-1.112c.053-.388.223-.8.512-1.235.313-.47.677-.812 1.092-1.023.415-.21.85-.325 1.304-.344.454-.02.908.05 1.363.203.454.155.877.362 1.268.62.55.367 1.002.807 1.352 1.32.35.515.563 1.034.638 1.557l-1.535.287zm2.18 11.213l-1.416-.71 5.073-10.128 1.416.71-5.072 10.128zm13.537 3.18l.03.012 3.452-8.372 1.464.604-4.32 10.472-1.848-.763-2.007-10.83-.03-.013-3.526 8.55-1.464-.604 4.318-10.473 1.91.787 2.02 10.63zm16.255 4.186c-.58.484-1.26.826-2.044 1.025-.784.2-1.663.18-2.638-.056a6.362 6.362 0 0 1-2.22-.993 5.57 5.57 0 0 1-1.544-1.643 5.67 5.67 0 0 1-.76-2.127c-.117-.78-.073-1.596.134-2.446.21-.86.547-1.61 1.015-2.247a5.476 5.476 0 0 1 1.67-1.52 5.752 5.752 0 0 1 2.143-.723 6.53 6.53 0 0 1 2.435.147c.373.09.742.22 1.108.384.367.167.71.365 1.026.596a4.7 4.7 0 0 1 .833.77c.238.284.427.59.566.92l-1.44.64c-.178-.44-.484-.84-.917-1.204a3.648 3.648 0 0 0-1.506-.753c-.643-.157-1.25-.18-1.82-.072-.568.11-1.084.32-1.545.637a4.45 4.45 0 0 0-1.182 1.203 5.02 5.02 0 0 0-.71 1.63 5.308 5.308 0 0 0-.134 1.812c.06.586.22 1.12.482 1.607.26.486.62.906 1.077 1.258a4.307 4.307 0 0 0 1.635.76 3.91 3.91 0 0 0 1.786.038 3.358 3.358 0 0 0 1.523-.782l1.025 1.14zm6.005.354l5.892.567-.135 1.403-7.47-.72 1.085-11.275 7.23.696-.133 1.385-5.654-.544-.325 3.376 5.32.512-.13 1.353-5.32-.51-.36 3.757zm24.82.245l-7.356.738-.148-1.48 4.042-4.91c.304-.384.56-.78.765-1.186.205-.407.284-.85.236-1.326a1.97 1.97 0 0 0-.24-.788 1.888 1.888 0 0 0-.492-.57 1.866 1.866 0 0 0-.676-.326 2.244 2.244 0 0 0-.793-.057c-.573.058-1.027.288-1.362.692-.335.403-.52.896-.56 1.48l-1.537-.104c.02-.43.117-.84.287-1.227.17-.387.4-.73.692-1.034.29-.303.64-.55 1.043-.74.404-.19.845-.31 1.323-.358a4.396 4.396 0 0 1 1.367.072c.444.095.843.258 1.2.49.355.233.65.54.888.924.237.384.38.836.434 1.356.035.36.02.7-.044 1.017a4.066 4.066 0 0 1-.302.915 5.13 5.13 0 0 1-.502.846c-.198.272-.406.542-.626.81l-3.303 3.935 5.524-.556.14 1.385zm6.085-13.59c.655-.15 1.254-.128 1.796.064a3.672 3.672 0 0 1 1.455.97c.427.455.795 1.02 1.103 1.693.308.673.555 1.41.74 2.21.185.81.286 1.584.302 2.32.016.735-.07 1.4-.255 1.995a3.672 3.672 0 0 1-.884 1.51c-.405.41-.934.69-1.59.84-.654.15-1.255.13-1.802-.06a3.644 3.644 0 0 1-1.463-.97c-.427-.454-.794-1.015-1.1-1.683a11.46 11.46 0 0 1-.742-2.22c-.184-.8-.284-1.57-.3-2.31-.02-.74.066-1.41.252-2.005s.483-1.1.892-1.51c.41-.412.94-.693 1.595-.844zm.29 1.264c-.456.106-.797.34-1.02.703a3.1 3.1 0 0 0-.42 1.28 6.893 6.893 0 0 0 .004 1.55c.06.544.143 1.05.25 1.518.11.468.255.96.44 1.475.183.516.408.98.67 1.39.265.41.577.728.936.958.36.23.768.29 1.225.186.447-.103.78-.335.997-.697.218-.362.358-.786.422-1.27.063-.487.065-1.002.006-1.546a13.18 13.18 0 0 0-.25-1.517 13.18 13.18 0 0 0-.44-1.476 6.602 6.602 0 0 0-.68-1.394 3.246 3.246 0 0 0-.938-.967c-.354-.23-.754-.294-1.2-.192zm15.346 5.47l-1.457.534-3.256-8.86-1.394 2.42-1.226-.69 2.12-3.558 1.306-.48 3.908 10.633zm11.145-5.744l-1.38.714-4.34-8.383-1.08 2.578-1.302-.533 1.658-3.794 1.237-.64 5.208 10.06z" fill="#F47503"/><g fill="#F47503"><path d="M117.13 99.325c-.9 1.17-2.06 2.605-1.602 3.062.457.457 1.96-.69 3.098-1.588 8.09-6.373 14.886-11.578 14.886-11.578l-4.817-4.818s-6.248 8.016-11.564 14.92M145.678 95.08c3.225-4.197 3.288-10.038.214-14.314 1.366-1.762 4.635-5.975 5.535-7.12.624-.793 1.88-1.058 2.814-.122 1.952 1.95 4.94 2.208 7.332-.186.196-.194.294-.284.597-.587a1.19 1.19 0 0 0 0-1.7L146.864 55.75a1.19 1.19 0 0 0-1.7-.002c-.302.303-.393.403-.588.597-2.392 2.393-2.135 5.38-.184 7.332.982.984.67 2.19-.123 2.815-1.146.9-5.357 4.17-7.12 5.535-4.275-3.075-10.116-3.013-14.313.214-.75.572-.686 1.567-.148 2.104.127.127 20.754 20.755 20.883 20.882.537.538 1.53.603 2.105-.146"/></g><g fill="#F47503"><path d="M52.962 152.62a.42.42 0 0 1-.368-.182c-.092-.09-.138-.228-.092-.365l4.234-23.915h-2.163c-4.097 0-4.97 2.19-4.97 3.97 0 .275-.277.366-.37.412l-.598.137c-.552.137-1.058.273-1.38.365-.093 0-.14.045-.185.045-.276 0-.46-.137-.598-.365-.276-.41-.322-1.186-.322-1.506 0-3.286 2.577-6.846 8.285-6.846H67.69a.42.42 0 0 1 .37.183c.092.09.138.228.092.365a72.085 72.085 0 0 0-.46 2.647.69.69 0 0 1-.69.593h-5.71l-4.233 23.87c-.093.365-.416.593-.692.593h-3.406zM188.72 152.94c-1.61 0-3.175-.32-3.636-2.556l-.046-.273-.184.183c-1.703 1.78-3.636 2.647-5.845 2.647-2.257 0-4.098-1.095-4.927-2.966l-.092-.183-.137.138c-1.52 1.37-3.912 3.012-6.582 3.012-1.886 0-3.313-.502-4.142-1.506-.828-.958-1.104-2.42-.828-4.062l1.657-9.264c.092-.457.138-.822.138-.822l.046-.182h-2.945c-.138 0-.23-.046-.322-.183a.353.353 0 0 1-.092-.364c.093-.548.323-1.87.323-1.87.046-.32.414-.55.69-.55h2.854l1.197-6.708c.046-.32.368-.593.69-.593h3.407a.42.42 0 0 1 .37.182c.09.092.137.23.09.366-.137.775-1.15 6.617-1.15 6.617l-.046.183h4.695a.42.42 0 0 1 .368.182c.092.092.138.228.092.365-.046.32-.323 1.78-.323 1.78-.092.41-.414.64-.736.64H168.7l-1.795 10.04c-.184.912-.046 1.643.368 2.1.323.41.83.592 1.428.592 2.21 0 3.728-1.05 4.65-1.825l.045-.046v-.09c-.184-1.187-.368-2.373-.184-3.925.597-5.02 3.543-10.406 10.125-10.406 2.992 0 4.05 1.87 4.235 2.236l.184.365.276-1.46c.046-.32.37-.547.69-.547h3.04a.42.42 0 0 1 .367.182c.092.092.138.228.092.365l-2.256 12.688c-.185 1.14-.14 1.78.138 2.145.184.228.506.365.966.365 1.703 0 2.946-1.69 2.992-1.78l.046-.046v-.045c-.368-1.278-.414-3.332-.138-4.93 1.013-5.84 4.88-9.492 10.08-9.492 2.532 0 4.465.776 5.662 2.19 1.243 1.46 1.38 3.378 1.15 4.656-.09.412-.505.777-.92.777h-3.038a.525.525 0 0 1-.368-.137.353.353 0 0 1-.092-.365l.092-.822c.092-.82-.046-1.506-.506-1.962-.46-.5-1.15-.775-2.07-.775-2.625 0-4.835 2.42-5.525 5.98-.368 1.915-.138 3.42.736 4.47.874 1.05 2.347 1.598 4.464 1.598 3.96 0 6.675-1.414 9.574-3.56l.046-.045 3.683-20.63c.092-.41.368-.638.736-.638h3.36a.42.42 0 0 1 .37.183c.09.09.137.228.09.41-.183 1.142-.506 2.785-.828 4.702-.552 3.15-1.243 7.028-1.887 10.725l-.092.456.322-.32c1.243-1.323 3.59-3.696 6.306-5.704 2.118-1.552 3.82-1.917 4.88-1.917 1.058 0 1.656.41 1.656 1.095v2.556c0 .182-.092.274-.138.32a.525.525 0 0 1-.368.136h-.138a5.058 5.058 0 0 0-1.197-.137c-2.9 0-6.49 3.195-6.63 3.332l-.09.09.045.093s5.892 10.725 6.444 11.683a.412.412 0 0 1 0 .456c-.093.136-.23.228-.37.228h-3.636c-.736 0-.782-.092-1.104-.685l-.23-.365a923.27 923.27 0 0 0-4.603-8.352l-.046-.41-.874.775c-.368.32-.598.503-.92.777l-.047.046s-.507 2.92-.737 4.107c-.276 1.597-.506 2.784-.552 3.24-.09.41-.414.594-.69.594h-3.406a.42.42 0 0 1-.368-.183.353.353 0 0 1-.092-.364l.644-3.56-.276.23c-3.544 2.646-6.536 4.334-10.45 4.334-3.267 0-5.798-1.095-6.95-2.966l-.09-.137-.14.137c-.045 0-2.76 2.966-6.12 2.966zm-5.477-15.836c-2.715 0-4.787 2.145-5.477 5.75-.276 1.37-.507 3.834.644 5.248.553.64 1.335 1.005 2.302 1.005 2.76 0 5.11-2.42 5.753-6.07.415-2.19.184-3.88-.69-4.884-.506-.684-1.38-1.05-2.532-1.05zM135.097 153.077c-1.335 0-2.256-.365-2.854-1.05-1.06-1.277-.6-3.56-.276-5.202.046-.274.092-.502.138-.73.138-.822.276-1.598.414-2.283.735-3.97 1.012-5.613.46-6.298-.185-.228-.46-.32-.875-.32-2.808 0-6.352 7.486-8.378 14.833-.092.366-.368.548-.736.548h-2.76a.42.42 0 0 1-.37-.182c-.09-.092-.137-.23-.09-.366.045-.365.505-2.875.505-2.875.184-.913.322-1.825.506-2.738.83-4.336 1.474-7.804.554-8.854a.986.986 0 0 0-.783-.365c-2.116 0-5.568 6.115-8.422 14.878a.766.766 0 0 1-.737.502h-2.806a.42.42 0 0 1-.37-.182c-.09-.092-.137-.23-.09-.32 0-.09.23-1.232.23-1.232l-.277.23c-1.84 1.368-3.36 1.96-4.833 1.96-1.335 0-2.255-.318-2.854-1.003-.644-.775-.828-1.962-.506-3.696l.322-1.825-.276-.09c-1.703 2.828-4.465 6.57-8.377 6.57-1.703 0-2.992-.775-3.545-2.19l-.138-.09-.138.136c-1.933 1.46-3.406 2.237-5.615 2.237-1.29 0-2.256-.32-2.808-1.004-1.014-1.232-.646-3.332-.37-4.838l.093-.456c.276-1.553.598-3.515.92-5.295l.276-1.506c.184-.914.276-1.872-.185-2.374-.23-.274-.552-.365-.966-.365-1.842 0-6.583 5.705-10.082 14.97a.673.673 0 0 1-.644.41H65.96c-.184 0-.276-.09-.368-.136a.353.353 0 0 1-.092-.365c.092-.503 2.808-15.7 4.097-23.003l.782-4.153c.045-.274.32-.594.69-.594h3.406a.42.42 0 0 1 .368.183c.092.09.138.274.092.365l-2.808 15.745.276.092c.047-.092 3.82-7.074 8.562-7.074 1.565 0 2.67.41 3.36 1.187 1.013 1.187.83 3.104.552 4.655-.276 1.69-.598 3.332-.874 4.838a94.99 94.99 0 0 0-.552 3.104c-.185 1.05-.14 1.688.23 2.1.23.273.644.41 1.196.41.737 0 1.61-.365 2.624-1.14l.046-.047v-.09c-.046-.868.046-1.827.23-2.83 0 0 1.84-10.406 1.934-10.954.092-.41.414-.593.69-.593h3.36c.138 0 .276.045.368.137.092.09.138.228.092.365l-1.933 10.953c0 .09-.047.228-.047.32-.184.867-.414 2.1.138 2.738.23.274.554.41 1.014.41 2.3 0 7.042-5.157 9.574-14.42 0 0 .138-.503.69-.503h2.624a.42.42 0 0 1 .368.182c.092.09.138.228.092.365-.368 2.054-2.255 12.825-2.3 12.825-.185.958-.093 1.597.23 1.962.23.274.55.365 1.058.365.92 0 2.117-.685 2.9-1.324l.046-.046v-.045c.598-3.332 1.427-7.987 1.98-11.09l.46-2.602a.69.69 0 0 1 .69-.593h3.406a.42.42 0 0 1 .368.182c.092.09.138.228.092.365-.184 1.096-.92 5.294-.92 5.294l.276.093c.092-.183.184-.365.322-.594 1.06-2.054 3.038-5.934 6.628-5.934 2.532 0 3.867 1.37 3.913 4.017.047 1.734-.23 2.92-.23 2.92l.277.092c.046-.092 2.946-7.03 8.01-7.03 1.61 0 2.622.366 3.22 1.097.92 1.095 1.013 3.15.37 6.617-.185.912-.46 2.6-.737 4.107-.138.73-.23 1.415-.37 2.008-.183 1.05-.137 1.688.232 2.1.23.273.598.41 1.15.41 1.105 0 2.164-.776 2.854-1.415l.046-.045v-.046c.46-2.694 3.682-20.63 4.19-23.55a.69.69 0 0 1 .69-.594h3.36c.137 0 .276.046.368.137.092.09.138.228.092.41l-.138.822c-.37 2.008-.875 4.884-1.52 8.49-.09.592-.276 1.368-.276 1.368l-.092.41.323-.32c1.333-1.322 3.175-2.052 5.062-2.052 1.98 0 3.498.64 4.557 1.872 1.472 1.734 1.932 4.7 1.288 8.352-.967 5.385-4.88 9.173-9.53 9.173-1.84 0-3.36-.684-4.51-2.008l-.184-.23-.23 1.187a.742.742 0 0 1-.736.64h-3.038a.42.42 0 0 1-.368-.183c-.092-.09-.138-.228-.092-.365l.23-1.234-.276.23c-1.06.866-2.854 1.96-4.787 1.96zm16.294-15.836c-2.208 0-4.832 1.963-5.523 5.75-.46 2.374-.184 4.2.69 5.25.553.684 1.382 1.003 2.394 1.003 1.704 0 4.65-.775 5.57-6.024.415-2.237.185-3.97-.69-4.975-.598-.685-1.426-1.004-2.44-1.004zM63.372 165.672h3.696c.65 0 1.237.06 1.76.176.523.117.97.31 1.344.576.373.267.66.608.864 1.024.203.416.304.917.304 1.504 0 .63-.117 1.157-.352 1.584-.235.427-.552.77-.952 1.032-.4.26-.867.45-1.4.568-.533.117-1.1.176-1.696.176h-1.552V177h-2.016v-11.328zm3.424 4.944c.33 0 .645-.024.944-.072.3-.048.565-.133.8-.256.235-.123.42-.29.56-.504.14-.213.208-.49.208-.832 0-.33-.07-.6-.208-.808a1.438 1.438 0 0 0-.552-.488 2.364 2.364 0 0 0-.784-.232 7.155 7.155 0 0 0-.904-.056h-1.472v3.248h1.408zm9.336-4.944h3.936c.533 0 1.05.056 1.552.168.5.112.947.296 1.336.552.39.256.7.592.936 1.008.235.416.352.923.352 1.52 0 .82-.232 1.49-.696 2.008-.464.517-1.096.867-1.896 1.048L84.676 177h-2.432l-2.624-4.8h-1.472v4.8h-2.016v-11.328zm3.664 4.88c.288 0 .576-.02.864-.064.288-.043.547-.123.776-.24.23-.117.42-.285.568-.504.15-.22.224-.5.224-.84 0-.31-.07-.563-.208-.76a1.55 1.55 0 0 0-.528-.472 2.208 2.208 0 0 0-.728-.24 5.11 5.11 0 0 0-.792-.064h-1.824v3.184h1.648zm8.856.752c0-.907.152-1.725.456-2.456a5.392 5.392 0 0 1 1.264-1.864 5.597 5.597 0 0 1 1.92-1.184 6.865 6.865 0 0 1 2.424-.416c.885 0 1.7.14 2.448.416a5.667 5.667 0 0 1 1.936 1.184 5.34 5.34 0 0 1 1.272 1.864c.304.73.456 1.55.456 2.456 0 .885-.152 1.693-.456 2.424a5.59 5.59 0 0 1-1.272 1.888c-.544.528-1.19.94-1.936 1.232a6.638 6.638 0 0 1-2.448.44 6.53 6.53 0 0 1-2.424-.44 5.708 5.708 0 0 1-1.92-1.232 5.648 5.648 0 0 1-1.264-1.888c-.304-.73-.456-1.54-.456-2.424zm2.192 0c0 .608.093 1.165.28 1.672.187.507.453.947.8 1.32.347.373.757.664 1.232.872.475.208 1 .312 1.576.312.576 0 1.104-.104 1.584-.312.48-.208.893-.5 1.24-.872.347-.373.613-.813.8-1.32.187-.507.28-1.064.28-1.672a4.64 4.64 0 0 0-.28-1.632 3.98 3.98 0 0 0-.792-1.312 3.664 3.664 0 0 0-1.232-.88 3.897 3.897 0 0 0-1.6-.32 3.84 3.84 0 0 0-1.592.32 3.685 3.685 0 0 0-1.224.88 3.98 3.98 0 0 0-.792 1.312 4.64 4.64 0 0 0-.28 1.632zm14.936-5.632h7.312v1.76h-5.296v3.104h4.992v1.696h-4.992V177h-2.016v-11.328zm12.168 0h7.504v1.76h-5.488v2.88h5.2v1.696h-5.2v3.2h5.776V177h-7.792v-11.328zm18.536 2.368c-.213-.277-.515-.51-.904-.696a2.697 2.697 0 0 0-1.88-.192c-.235.06-.448.15-.64.272-.192.123-.35.283-.472.48a1.322 1.322 0 0 0-.184.712c0 .256.053.475.16.656.107.18.253.336.44.464s.413.24.68.336c.267.096.56.192.88.288.363.117.74.25 1.128.4.39.15.747.347 1.072.592.325.245.592.555.8.928.208.373.312.837.312 1.392 0 .608-.112 1.14-.336 1.592-.224.453-.523.83-.896 1.128-.373.3-.81.523-1.312.672-.5.15-1.03.224-1.584.224a5.946 5.946 0 0 1-2.16-.408c-.704-.272-1.28-.675-1.728-1.208l1.44-1.344c.277.384.648.688 1.112.912.464.224.92.336 1.368.336.235 0 .475-.03.72-.088a1.92 1.92 0 0 0 .664-.296c.197-.14.357-.312.48-.52.123-.208.184-.467.184-.776 0-.3-.07-.547-.208-.744a1.86 1.86 0 0 0-.56-.512 4.02 4.02 0 0 0-.832-.376c-.32-.107-.656-.22-1.008-.336a9.986 9.986 0 0 1-1.024-.384 3.396 3.396 0 0 1-.92-.592 2.86 2.86 0 0 1-.664-.904c-.17-.357-.256-.803-.256-1.336 0-.576.12-1.072.36-1.488.24-.416.555-.76.944-1.032a4.2 4.2 0 0 1 1.328-.608 5.8 5.8 0 0 1 1.512-.2c.576 0 1.16.1 1.752.304a4.28 4.28 0 0 1 1.544.912l-1.312 1.44zm12.184 0c-.213-.277-.515-.51-.904-.696a2.697 2.697 0 0 0-1.88-.192c-.235.06-.448.15-.64.272-.192.123-.35.283-.472.48a1.322 1.322 0 0 0-.184.712c0 .256.053.475.16.656.107.18.253.336.44.464s.413.24.68.336c.267.096.56.192.88.288.363.117.74.25 1.128.4.39.15.747.347 1.072.592.325.245.592.555.8.928.208.373.312.837.312 1.392 0 .608-.112 1.14-.336 1.592-.224.453-.523.83-.896 1.128-.373.3-.81.523-1.312.672-.5.15-1.03.224-1.584.224a5.946 5.946 0 0 1-2.16-.408c-.704-.272-1.28-.675-1.728-1.208l1.44-1.344c.277.384.648.688 1.112.912.464.224.92.336 1.368.336.235 0 .475-.03.72-.088a1.92 1.92 0 0 0 .664-.296c.197-.14.357-.312.48-.52.123-.208.184-.467.184-.776 0-.3-.07-.547-.208-.744a1.86 1.86 0 0 0-.56-.512 4.02 4.02 0 0 0-.832-.376c-.32-.107-.656-.22-1.008-.336a9.986 9.986 0 0 1-1.024-.384 3.396 3.396 0 0 1-.92-.592 2.86 2.86 0 0 1-.664-.904c-.17-.357-.256-.803-.256-1.336 0-.576.12-1.072.36-1.488.24-.416.555-.76.944-1.032a4.2 4.2 0 0 1 1.328-.608 5.8 5.8 0 0 1 1.512-.2c.576 0 1.16.1 1.752.304a4.28 4.28 0 0 1 1.544.912l-1.312 1.44zm6.408-2.368h2.016V177h-2.016v-11.328zm6.968 5.632c0-.907.152-1.725.456-2.456a5.392 5.392 0 0 1 1.264-1.864 5.597 5.597 0 0 1 1.92-1.184 6.865 6.865 0 0 1 2.424-.416c.885 0 1.7.14 2.448.416a5.667 5.667 0 0 1 1.936 1.184 5.34 5.34 0 0 1 1.272 1.864c.304.73.456 1.55.456 2.456 0 .885-.152 1.693-.456 2.424a5.59 5.59 0 0 1-1.272 1.888c-.544.528-1.19.94-1.936 1.232a6.638 6.638 0 0 1-2.448.44 6.53 6.53 0 0 1-2.424-.44 5.708 5.708 0 0 1-1.92-1.232 5.648 5.648 0 0 1-1.264-1.888c-.304-.73-.456-1.54-.456-2.424zm2.192 0c0 .608.093 1.165.28 1.672.187.507.453.947.8 1.32.347.373.757.664 1.232.872.475.208 1 .312 1.576.312.576 0 1.104-.104 1.584-.312.48-.208.893-.5 1.24-.872.347-.373.613-.813.8-1.32.187-.507.28-1.064.28-1.672a4.64 4.64 0 0 0-.28-1.632 3.98 3.98 0 0 0-.792-1.312 3.664 3.664 0 0 0-1.232-.88 3.897 3.897 0 0 0-1.6-.32 3.84 3.84 0 0 0-1.592.32 3.685 3.685 0 0 0-1.224.88 3.98 3.98 0 0 0-.792 1.312 4.64 4.64 0 0 0-.28 1.632zm14.936-5.632h2.672l5.264 8.48h.032v-8.48h2.016V177h-2.56l-5.376-8.752h-.032V177h-2.016v-11.328zm19.032 0h1.744l4.88 11.328h-2.304l-1.056-2.592h-4.912L195.532 177h-2.256l4.928-11.328zm2.56 7.008l-1.744-4.608-1.776 4.608h3.52zm8.184-7.008h2.016v9.536h4.816V177h-6.832v-11.328z"/></g></g></svg>